{
  "accessors": [
    {
      "name": "A_AirPlane1-Mesh_0_positions",
      "componentType": 5126,
      "count": 14000,
      "min": [
        -17.904117584228516,
        0.015668999403715134,
        -23.518390655517578
      ],
      "max": [
        17.956422805786133,
        12.446027755737305,
        16.22191619873047
      ],
      "type": "VEC3",
      "bufferView": 0,
      "byteOffset": 0
    },
    {
      "name": "A_AirPlane1-Mesh_0_normals",
      "componentType": 5126,
      "count": 14000,
      "min": [
        -1,
        -1,
        -1
      ],
      "max": [
        1,
        1,
        1
      ],
      "type": "VEC3",
      "bufferView": 1,
      "byteOffset": 0
    },
    {
      "name": "A_AirPlane1-Mesh_0_texcoords",
      "componentType": 5126,
      "count": 14000,
      "min": [
        0.2335900068283081,
        0.4506950080394745
      ],
      "max": [
        0.5323449969291687,
        0.6727129817008972
      ],
      "type": "VEC2",
      "bufferView": 2,
      "byteOffset": 0
    },
    {
      "name": "A_AirPlane1-Mesh_0_indices",
      "componentType": 5123,
      "count": 49968,
      "min": [
        0
      ],
      "max": [
        13999
      ],
      "type": "SCALAR",
      "bufferView": 3,
      "byteOffset": 0
    },
    {
      "name": "A_AirPlane1-Mesh_1_positions",
      "componentType": 5126,
      "count": 762,
      "min": [
        -0.5644479990005493,
        2.101649045944214,
        -6.105745792388916
      ],
      "max": [
        0.6063690185546875,
        3.1470139026641846,
        12.703883171081543
      ],
      "type": "VEC3",
      "bufferView": 0,
      "byteOffset": 168000
    },
    {
      "name": "A_AirPlane1-Mesh_1_normals",
      "componentType": 5126,
      "count": 762,
      "min": [
        -1,
        -1,
        -1
      ],
      "max": [
        1,
        1,
        1
      ],
      "type": "VEC3",
      "bufferView": 1,
      "byteOffset": 168000
    },
    {
      "name": "A_AirPlane1-Mesh_1_texcoords",
      "componentType": 5126,
      "count": 762,
      "min": [
        0.3597150146961212,
        0.5464810132980347
      ],
      "max": [
        0.3908750116825104,
        0.6398159861564636
      ],
      "type": "VEC2",
      "bufferView": 2,
      "byteOffset": 112000
    },
    {
      "name": "A_AirPlane1-Mesh_1_indices",
      "componentType": 5123,
      "count": 2772,
      "min": [
        0
      ],
      "max": [
        761
      ],
      "type": "SCALAR",
      "bufferView": 3,
      "byteOffset": 99936
    }
  ],
  "asset": {
    "generator": "obj2gltf",
    "version": "2.0"
  },
  "buffers": [
    {
      "name": "Airplane",
      "byteLength": 577864,
      "uri": "data:application/octet-stream;base64,"
    }
  ],
  "bufferViews": [
    {
      "name": "bufferView_0",
      "buffer": 0,
      "byteLength": 177144,
      "byteOffset": 0,
      "byteStride": 12,
      "target": 34962
    },
    {
      "name": "bufferView_1",
      "buffer": 0,
      "byteLength": 177144,
      "byteOffset": 177144,
      "byteStride": 12,
      "target": 34962
    },
    {
      "name": "bufferView_2",
      "buffer": 0,
      "byteLength": 118096,
      "byteOffset": 354288,
      "byteStride": 8,
      "target": 34962
    },
    {
      "name": "bufferView_3",
      "buffer": 0,
      "byteLength": 105480,
      "byteOffset": 472384,
      "target": 34963
    }
  ],
  "materials": [
    {
      "name": "Material_metal",
      "pbrMetallicRoughness": {
        "baseColorFactor": [
          0.5,
          0.5,
          0.5,
          1
        ],
        "metallicFactor": 0,
        "roughnessFactor": 1
      },
      "emissiveFactor": [
        0,
        0,
        0
      ],
      "alphaMode": "OPAQUE",
      "doubleSided": false
    },
    {
      "name": "Material_metal.001",
      "pbrMetallicRoughness": {
        "baseColorFactor": [
          0.5,
          0.5,
          0.5,
          1
        ],
        "metallicFactor": 0,
        "roughnessFactor": 1
      },
      "emissiveFactor": [
        0,
        0,
        0
      ],
      "alphaMode": "OPAQUE",
      "doubleSided": false
    }
  ],
  "meshes": [
    {
      "name": "A_AirPlane1-Mesh",
      "primitives": [
        {
          "attributes": {
            "POSITION": 0,
            "NORMAL": 1,
            "TEXCOORD_0": 2
          },
          "indices": 3,
          "material": 0,
          "mode": 4
        },
        {
          "attributes": {
            "POSITION": 4,
            "NORMAL": 5,
            "TEXCOORD_0": 6
          },
          "indices": 7,
          "material": 1,
          "mode": 4
        }
      ]
    }
  ],
  "nodes": [
    {
      "name": "A_AirPlane1",
      "mesh": 0
    }
  ],
  "scene": 0,
  "scenes": [
    {
      "nodes": [
        0
      ]
    }
  ]
}
